<?xml version="1.0" encoding="utf-8"?>
<!-- Generator: Adobe Illustrator 16.0.0, SVG Export Plug-In . SVG Version: 6.00 Build 0)  -->
<!DOCTYPE svg PUBLIC "-//W3C//DTD SVG 1.1//EN" "http://www.w3.org/Graphics/SVG/1.1/DTD/svg11.dtd">
<svg version="1.1" id="Layer_1" xmlns="http://www.w3.org/2000/svg" xmlns:xlink="http://www.w3.org/1999/xlink" x="0px" y="0px"
	 width="134.333px" height="207.581px" viewBox="0 0 134.333 207.581" enable-background="new 0 0 134.333 207.581"
	 xml:space="preserve">
<g>
	<g>
		<radialGradient id="SVGID_1_" cx="65.6543" cy="81.3018" r="81.8284" gradientUnits="userSpaceOnUse">
			<stop  offset="0" style="stop-color:#57A2D9"/>
			<stop  offset="1" style="stop-color:#004A8E"/>
		</radialGradient>
		<polygon fill="url(#SVGID_1_)" points="98.581,110.958 98.581,129.814 114.91,120.385 		"/>
		<radialGradient id="SVGID_2_" cx="65.6494" cy="81.2998" r="81.8353" gradientUnits="userSpaceOnUse">
			<stop  offset="0" style="stop-color:#57A2D9"/>
			<stop  offset="1" style="stop-color:#004A8E"/>
		</radialGradient>
		<path fill="url(#SVGID_2_)" d="M83.27,96.306l10.275,5.932V65.707c0-0.899,0.48-1.73,1.258-2.18l28.654-16.542L89.868,27.593
			l-6.599,3.81V96.306z"/>
		<radialGradient id="SVGID_3_" cx="65.6489" cy="81.3003" r="81.8332" gradientUnits="userSpaceOnUse">
			<stop  offset="0" style="stop-color:#D9DADA"/>
			<stop  offset="1" style="stop-color:#ADADAD"/>
		</radialGradient>
		<polygon fill="url(#SVGID_3_)" points="35.752,96.307 35.752,58.133 13.66,45.377 9.374,47.852 9.374,111.538 		"/>
		<radialGradient id="SVGID_4_" cx="65.6543" cy="81.3003" r="81.8301" gradientUnits="userSpaceOnUse">
			<stop  offset="0" style="stop-color:#D9DADA"/>
			<stop  offset="1" style="stop-color:#ADADAD"/>
		</radialGradient>
		<polygon fill="url(#SVGID_4_)" points="98.581,67.16 98.581,105.146 119.944,117.481 124.959,114.585 124.959,51.93 		"/>
		<radialGradient id="SVGID_5_" cx="65.6499" cy="81.2183" r="81.9199" gradientUnits="userSpaceOnUse">
			<stop  offset="0" style="stop-color:#57A2D9"/>
			<stop  offset="1" style="stop-color:#004A8E"/>
		</radialGradient>
		<path fill="url(#SVGID_5_)" d="M93.545,108.051l-14.05-8.113c-0.78-0.449-1.259-1.281-1.259-2.179V29.949
			c0-0.899,0.479-1.731,1.259-2.179l5.339-3.084l-17.668-10.2L40.772,29.724c0.007,0.074,0.015,0.149,0.015,0.225v25.278
			l14.374,8.299c0.778,0.449,1.259,1.281,1.259,2.18v67.81c0,0.9-0.481,1.731-1.259,2.182l-4.61,2.661l16.614,9.593l26.379-15.229
			V108.051z"/>
		<radialGradient id="SVGID_6_" cx="65.6489" cy="81.3013" r="81.8339" gradientUnits="userSpaceOnUse">
			<stop  offset="0" style="stop-color:#57A2D9"/>
			<stop  offset="1" style="stop-color:#004A8E"/>
		</radialGradient>
		<polygon fill="url(#SVGID_6_)" points="35.752,52.321 35.752,32.622 18.694,42.47 		"/>
		<radialGradient id="SVGID_7_" cx="65.6499" cy="81.2998" r="81.8327" gradientUnits="userSpaceOnUse">
			<stop  offset="0" style="stop-color:#57A2D9"/>
			<stop  offset="1" style="stop-color:#004A8E"/>
		</radialGradient>
		<path fill="url(#SVGID_7_)" d="M51.386,67.16l-10.599-6.12v36.72c0,0.899-0.481,1.73-1.259,2.179l-27.761,16.03l33.75,19.482
			l5.869-3.389V67.16z"/>
	</g>
	<g>
		<path d="M102.767,188.545l-8.822-5.094v-8.778l8.822-5.094c1.168-0.676,1.566-2.164,0.893-3.333
			c-0.673-1.166-2.163-1.563-3.33-0.892l-10.041,5.8c-0.755,0.433-1.219,1.238-1.219,2.11v11.592c0,0.872,0.464,1.678,1.219,2.114
			l10.041,5.796c0.383,0.223,0.803,0.328,1.217,0.328c0.843,0,1.662-0.439,2.113-1.221
			C104.333,190.709,103.935,189.218,102.767,188.545z"/>
		<path d="M53.21,165.029c-1.346,0-2.438,1.091-2.438,2.438v23.189c0,1.347,1.092,2.439,2.438,2.439
			c1.348,0,2.439-1.093,2.439-2.439v-23.189C55.649,166.12,54.558,165.029,53.21,165.029z"/>
		<path d="M81.501,165.029H66.366c-1.346,0-2.438,1.091-2.438,2.438c0,1.346,1.091,2.438,2.438,2.438h5.13v20.751
			c0,1.347,1.092,2.439,2.438,2.439c1.348,0,2.439-1.093,2.439-2.439v-20.751h5.128c1.348,0,2.439-1.093,2.439-2.438
			C83.94,166.12,82.849,165.029,81.501,165.029z"/>
		<path d="M32.785,165.029c-1.346,0-2.438,1.091-2.438,2.438v23.189c0,1.347,1.091,2.439,2.438,2.439
			c1.348,0,2.439-1.093,2.439-2.439v-23.189C35.224,166.12,34.132,165.029,32.785,165.029z"/>
	</g>
</g>
</svg>
